<?xml version="1.0" encoding="UTF-8" standalone="no"?>
<svg
   xmlns:dc="http://purl.org/dc/elements/1.1/"
   xmlns:cc="http://creativecommons.org/ns#"
   xmlns:rdf="http://www.w3.org/1999/02/22-rdf-syntax-ns#"
   xmlns:svg="http://www.w3.org/2000/svg"
   xmlns="http://www.w3.org/2000/svg"
   version="1.1"
   id="svg6440"
   viewBox="0 0 1488.189 1052.3622"
   height="297mm"
   width="420mm">
  <defs
     id="defs6442" />
  <metadata
     id="metadata6445">
    <rdf:RDF>
      <cc:Work
         rdf:about="">
        <dc:format>image/svg+xml</dc:format>
        <dc:type
           rdf:resource="http://purl.org/dc/dcmitype/StillImage" />
        <dc:title></dc:title>
      </cc:Work>
    </rdf:RDF>
  </metadata>
  <g
     transform="translate(0,-1.6535434e-6)"
     id="layer1">
    <g
       id="g6609"
       transform="matrix(3.1664612,0,0,-3.1664612,53.006415,767.6301)">
      <g
         id="g6611"
         transform="scale(0.1,0.1)">
        <path
           d="m 514.641,1525.04 238.714,0 0,-1104.962 C 630.898,396.832 540.98,387.531 443.332,387.531 151.914,387.531 0,519.277 0,771.957 c 0,243.373 161.215,401.473 410.781,401.473 38.758,0 68.203,-3.09 103.86,-12.39 l 0,364 z m 0,-556.208 c -27.903,9.293 -51.153,12.395 -80.602,12.395 -120.91,0 -190.668,-74.411 -190.668,-204.61 0,-127.121 66.652,-196.871 189.113,-196.871 26.344,0 48.047,1.547 82.157,6.188 l 0,382.898"
           style="fill:#163528;fill-opacity:1;fill-rule:nonzero;stroke:none"
           id="path6613" />
        <path
           d="m 1133.13,1156.38 0,-553.38 c 0,-190.672 -13.95,-282.125 -55.81,-361.18 C 1038.57,165.855 987.406,117.809 882.004,65.1016 L 660.336,170.512 c 105.406,49.605 156.562,92.996 189.109,159.668 34.106,68.203 44.969,147.258 44.969,354.972 l 0,471.228 238.716,0 z m -238.716,367.39 238.716,0 0,-244.93 -238.716,0 0,244.93"
           style="fill:#163528;fill-opacity:1;fill-rule:nonzero;stroke:none"
           id="path6615" />
        <path
           d="m 1277.32,1102.14 c 105.41,49.59 206.16,71.29 316.23,71.29 122.46,0 203.05,-32.55 238.72,-96.11 20.13,-35.65 26.34,-82.148 26.34,-181.367 l 0,-485.172 c -106.97,-15.496 -241.82,-26.363 -341.02,-26.363 -199.96,0 -289.88,69.777 -289.88,224.777 0,167.422 119.36,244.918 412.34,269.731 l 0,52.699 c 0,43.406 -21.71,58.891 -82.16,58.891 -88.35,0 -187.56,-24.801 -280.57,-72.86 l 0,184.484 z m 373.57,-379.788 c -158.12,-15.497 -209.27,-40.305 -209.27,-102.309 0,-46.504 29.46,-68.195 94.56,-68.195 35.66,0 68.21,3.082 114.71,10.836 l 0,159.668"
           style="fill:#163528;fill-opacity:1;fill-rule:nonzero;stroke:none"
           id="path6617" />
        <path
           d="m 1974.87,1119.18 c 141.05,37.2 257.31,54.25 375.11,54.25 122.47,0 210.82,-27.89 263.54,-82.16 49.6,-51.14 65.09,-106.938 65.09,-226.313 l 0,-468.125 -238.71,0 0,458.828 c 0,91.445 -31,125.567 -116.25,125.567 -32.56,0 -62.01,-3.102 -110.07,-17.051 l 0,-567.344 -238.71,0 0,722.348"
           style="fill:#163528;fill-opacity:1;fill-rule:nonzero;stroke:none"
           id="path6619" />
        <path
           d="m 2771.42,266.617 c 83.72,-43.402 167.42,-63.547 255.78,-63.547 156.55,0 223.21,63.547 223.21,215.461 0,1.547 0,3.094 0,4.653 -46.51,-23.243 -93.01,-32.555 -155,-32.555 -209.27,0 -342.6,137.961 -342.6,356.519 0,271.292 196.87,424.732 545.64,424.732 102.33,0 196.88,-10.84 311.59,-34.09 L 3528.3,965.605 c -63.56,12.403 -5.08,1.657 -53.11,6.313 l 0,-24.813 3.09,-100.738 1.54,-130.219 c 1.56,-32.546 1.56,-65.101 3.11,-97.652 0,-29.449 0,-43.406 0,-65.113 0,-204.617 -17.05,-300.723 -68.21,-379.766 C 3340.31,57.3477 3211.66,0 3028.75,0 2935.74,0 2855.14,13.9492 2771.42,46.5078 l 0,220.1092 z m 474.34,713.055 c -3.1,0 -6.19,0 -7.75,0 l -17.06,0 c -46.49,1.555 -100.74,-10.84 -137.95,-34.09 -57.35,-32.559 -86.81,-91.469 -86.81,-175.172 0,-119.363 58.91,-187.566 164.31,-187.566 32.55,0 58.91,6.203 89.91,15.496 l 0,82.152 c 0,27.903 -1.55,58.922 -1.55,91.465 l -1.54,110.055 -1.56,79.058 0,18.602"
           style="fill:#163528;fill-opacity:1;fill-rule:nonzero;stroke:none"
           id="path6621" />
        <path
           d="m 3980.62,1176.54 c 238.71,0 384.43,-150.37 384.43,-393.727 0,-249.575 -151.9,-406.137 -393.73,-406.137 -238.73,0 -385.98,150.367 -385.98,392.176 0,251.128 151.92,407.688 395.28,407.688 z m -4.67,-607.649 c 91.48,0 145.73,75.957 145.73,207.726 0,130.199 -52.7,207.715 -144.14,207.715 -94.58,0 -148.84,-75.969 -148.84,-207.715 0,-131.769 54.26,-207.726 147.25,-207.726"
           style="fill:#163528;fill-opacity:1;fill-rule:nonzero;stroke:none"
           id="path6623" />
      </g>
    </g>
  </g>
</svg>
