<?xml version="1.0" encoding="UTF-8" standalone="no"?>
<svg width="198px" height="84px" viewBox="0 0 198 84" version="1.1" xmlns="http://www.w3.org/2000/svg" xmlns:xlink="http://www.w3.org/1999/xlink" xmlns:sketch="http://www.bohemiancoding.com/sketch/ns">
    <!-- Generator: Sketch 3.4.4 (17249) - http://www.bohemiancoding.com/sketch -->
    <title>cyan + rojo </title>
    <desc>Created with Sketch.</desc>
    <defs></defs>
    <g id="Page-1" stroke="none" stroke-width="1" fill="none" fill-rule="evenodd" sketch:type="MSPage">
        <g id="cyan-+-rojo-" sketch:type="MSLayerGroup" transform="translate(99.888311, 41.505235) rotate(-1.000000) translate(-99.888311, -41.505235) translate(-0.268924, -1.258528)">
            <g id="cyan" transform="translate(46.067786, 1.289198)" fill="#00B8F4" sketch:type="MSShapeGroup">
                <path d="M0.0708378157,24.3585247 C9.02280578,29.8568031 15.0066693,39.7308027 15.0066693,50.9776028 C15.0066693,62.224403 9.02280578,72.0977593 0.0708378157,77.596681 L0.0708378157,82.1441631 L17.1266519,82.1441631 L17.1266519,0.234804213 L0.0708378157,0.234804213 L0.0708378157,24.3585247 Z" id="Fill-1"></path>
                <path d="M58.1642865,67.2588626 C50.5563051,67.2588626 44.1512786,62.0249802 42.3642337,54.9712043 C42.0403117,53.6929688 41.8664371,52.3549064 41.8664371,50.9776028 C41.8664371,48.6655855 42.354574,46.467432 43.2271671,44.4732045 C45.7451295,38.7240394 51.4913643,34.6956997 58.1642865,34.6956997 C64.8372088,34.6956997 70.5834436,38.7240394 73.1014059,44.4732045 L88.7372438,44.4732045 C86.9302355,35.9880879 81.6644099,28.7664109 74.4872512,24.3585247 C69.7333898,21.4379463 64.1429982,19.7499291 58.1642865,19.7499291 C43.1608372,19.7499291 30.5967846,30.366296 27.5926172,44.4732045 C27.145695,46.5722898 26.9054904,48.7472845 26.9054904,50.9776028 C26.9054904,52.3311044 27.0020874,53.6620904 27.1701662,54.9712043 C29.1401015,70.3100308 42.2837362,82.2046332 58.1642865,82.2046332 C64.1429982,82.2046332 69.7333898,80.5166161 74.4872512,77.596681 C77.8230684,75.547773 80.7448063,72.8915905 83.1004856,69.7831687 L71.7419639,59.9702825 C68.819582,64.3595131 63.824872,67.2588626 58.1642865,67.2588626" id="Fill-2"></path>
                <path d="M107.403008,22.2137651 L90.1501363,22.2137651 L114.441711,78.5609865 L122.611887,57.4929373 L107.403008,22.2137651" id="Fill-3"></path>
            </g>
            <g id="rojo" transform="translate(0.345196, 20.588174)" fill="#FF000A" sketch:type="MSShapeGroup">
                <path d="M47.9134106,5.05954831 C43.1595492,2.13896988 37.5691576,0.450952748 31.5904459,0.450952748 C14.3543174,0.450952748 0.332293754,14.4594364 0.332293754,31.6786264 C0.332293754,48.8978165 14.3543174,62.9056568 31.5904459,62.9056568 C37.5691576,62.9056568 43.1595492,61.2176397 47.9134106,58.2977046 C56.8660226,52.7987829 62.8492421,42.9254266 62.8492421,31.6786264 C62.8492421,20.4318263 56.8660226,10.5578267 47.9134106,5.05954831 L47.9134106,5.05954831 Z M31.5904459,47.9605295 C22.603703,47.9605295 15.2925965,40.6571536 15.2925965,31.6786264 C15.2925965,22.7000993 22.603703,15.3967234 31.5904459,15.3967234 C40.5771888,15.3967234 47.8889394,22.7000993 47.8889394,31.6786264 C47.8889394,40.6571536 40.5771888,47.9605295 31.5904459,47.9605295 L31.5904459,47.9605295 Z" id="Fill-1"></path>
                <path d="M182.015836,2.91478873 L160.164301,59.2620101 L161.472869,62.7982259 L174.508315,62.7731372 L176.590947,57.346265 L197.699972,2.91478873 L182.015836,2.91478873" id="Fill-2"></path>
                <path d="M134.889369,38.3805176 C135.057448,37.0726903 135.145673,33.0314847 135.145673,31.6786264 C135.145673,29.4483081 134.9074,27.2733134 134.459834,25.1742281 L88.9497573,25.1742281 C88.6226154,25.9223851 88.3495678,26.6988472 88.1357664,27.4991115 C87.921965,28.2993757 87.7680537,29.1240853 87.6791844,29.9674505 C87.6199383,30.529694 87.5890272,31.1009437 87.5890272,31.6786264 C87.5890272,33.0559301 87.7629019,34.3939924 88.0868239,35.672228 C88.3250965,36.6108015 88.6496625,37.5146369 89.0431344,38.3805176 L134.889369,38.3805176" id="Fill-3"></path>
            </g>
        </g>
    </g>
</svg>